<svg width="7" height="7" viewBox="0 0 7 7" fill="none" xmlns="http://www.w3.org/2000/svg">
<path d="M2.12246 2.8075H1.04028V6.64511H2.12246V2.8075Z" fill="#33CC66"/>
<path d="M4.8777 2.8075C4.8799 3.17143 4.73634 3.52141 4.47841 3.78096C4.22047 4.04052 3.86914 4.18852 3.5012 4.19262C2.84663 4.19693 2.22038 4.45729 1.75927 4.91682C1.29816 5.37635 1.03968 5.99769 1.04028 6.64511H2.12246C2.12085 6.28112 2.26481 5.93125 2.52293 5.67177C2.78107 5.4123 3.13244 5.26427 3.50045 5.25997C4.15495 5.25585 4.78116 4.99553 5.24207 4.53592C5.70299 4.0763 5.96108 3.45484 5.95987 2.8075H4.8777Z" fill="#000099"/>
<path d="M3.50044 0.353516C2.846 0.357822 2.2199 0.618227 1.75904 1.0778C1.29817 1.53737 1.04001 2.15872 1.04102 2.806H2.12244C2.12045 2.44201 2.26417 2.09202 2.52222 1.83249C2.78027 1.57296 3.13168 1.42498 3.49969 1.42088C3.86776 1.42479 4.21928 1.57271 4.47738 1.83228C4.73548 2.09185 4.87914 2.44195 4.87694 2.806H5.95912C5.96033 2.15879 5.70233 1.53743 5.24158 1.07784C4.78083 0.618252 4.15481 0.357823 3.50044 0.353516Z" fill="#3399FF"/>
<circle cx="6" cy="1" r="1" fill="#F23131"/>
</svg>
