<?xml version="1.0" encoding="UTF-8" standalone="no"?>
<svg
   width="7"
   height="7"
   viewBox="0 0 78.820003 18.2"
   fill="none"
   version="1.1"
   id="svg10"
   xmlns="http://www.w3.org/2000/svg"
   xmlns:svg="http://www.w3.org/2000/svg">
  <g
     clipPath="url(#clip0_210_867)"
     id="g10"
     transform="matrix(0.54488389,0,0,0.54488389,11.712712,-26.313366)">
    <path
       d="M 22.3631,50.6808 H 0 v 79.3042 h 22.3631 z"
       fill="#33cc66"
       id="path1" />
    <path
       d="m 79.3,50.6808 c 0.0455,7.5206 -2.9211,14.7531 -8.2513,20.1167 -5.3302,5.3636 -12.5905,8.4221 -20.1939,8.5069 v 0 C 37.328,79.3934 24.3866,84.7737 14.8578,94.2698 5.32904,103.766 -0.0125446,116.606 2.21234e-5,129.985 H 22.3631 c -0.0332,-7.522 2.9416,-14.752 8.2758,-20.114 5.3343,-5.362 12.5954,-8.421 20.2004,-8.51 13.5252,-0.085 26.4658,-5.4646 35.9905,-14.9624 9.5248,-9.4979 14.8582,-22.3404 14.8332,-35.7178 z"
       fill="white"
       id="path2"
       style="fill:#000099;fill-opacity:1" />
    <path
       d="M 50.8395,-0.0305176 C 37.3156,0.0584791 24.3773,5.43974 14.8535,14.9367 5.32965,24.4338 -0.00506811,37.2739 0.0156853,50.65 H 22.3633 c -0.0413,-7.5219 2.9287,-14.7544 8.2613,-20.1176 5.3327,-5.3631 12.5946,-8.4211 20.1994,-8.5059 7.6062,0.0808 14.8704,3.1375 20.2039,8.5015 5.3336,5.3641 8.3023,12.5989 8.2569,20.122 H 101.648 C 101.673,37.2753 96.3414,24.4351 86.8201,14.9377 77.2987,5.44024 64.362,0.0584899 50.8395,-0.0305176 Z"
       fill="#3399ff"
       id="path3" />
  </g>
  <defs
     id="defs10">
    <clipPath
       id="clip0_210_867">
      <rect
         width="562.21899"
         height="130"
         fill="#ffffff"
         id="rect10"
         x="0"
         y="0" />
    </clipPath>
  </defs>
</svg>
